PathFileType	4	(X/Y/Z)	C:/Users/beibeiliu/ov580/test_trc/User1\sequence.29_training_dense_left.trc
DataRate	CameraRate	NumFrames	NumMarkers	Units	OrigDataRate	OrigDataStartFrame	OrigNumFrames
120	120	15	19	mm	120	29	228
Frame#	Time	ThumbCMC			ThumbMCP			ThumbIP			ThumbTip			IndexMCP			IndexPIP			IndexTip			MiddleMCP			MiddlePIP			MiddleTip			RingMCP			RingPIP			RingTip			PinkyMCP			PinkyPIP			PinkyTip			BackHand1			BackHand2			BackHand3	
		X0	Y0	Z0	X1	Y1	Z1	X2	Y2	Z2	X3	Y3	Z3	X4	Y4	Z4	X5	Y5	Z5	X6	Y6	Z6	X7	Y7	Z7	X8	Y8	Z8	X9	Y9	Z9	X10	Y10	Z10	X11	Y11	Z11	X12	Y12	Z12	X13	Y13	Z13	X14	Y14	Z14	X15	Y15	Z15	X16	Y16	Z16	X17	Y17	Z17	X18	Y18	Z18	
28	0.233333	-97.1418	6.84007	44.6955	-80.51	-10.3163	21.1336	-70.0773	-14.0715	-7.07414	-59.7483	-20.8815	-25.5852	-103.738	24.6636	-36.158	-95.8185	14.3903	-58.8759	-87.0532	-2.69249	-84.4645	-130.911	22.2258	-43.125	-124.996	19.2948	-74.3022	-122.366	13.0099	-99.0367	-152.391	7.8556	-43.4576	-148.926	10.4992	-70.6985	-146.554	8.32919	-92.4421	-170.224	-16.9284	-25.9452	-174.852	-22.9228	-46.9831	-181.822	-20.6191	-69.3573	-164.253	7.58843	13.8705	-168.06	4.43124	52.4958	-138.016	25.3342	37.7797	
29	0.241667	-97.541	4.5991	47.3763	-80.7473	-10.0143	18.0145	-65.6638	-14.2728	-6.41456	-57.2093	-22.4158	-26.8044	-104.669	23.9349	-34.8064	-92.6045	14.1889	-59.088	-81.3155	-2.41757	-81.6076	-133.813	20.4652	-46.7647	-125.452	17.6398	-73.4885	-118.822	13.6863	-103.987	-151.364	7.54397	-42.4269	-149.074	8.40055	-69.6279	-149.159	5.92112	-93.1322	-167.886	-17.0932	-26.6263	-174.327	-22.1753	-48.017	-179.937	-20.2592	-70.3416	-159.404	8.26456	18.6768	-165.141	4.11472	49.4851	-135.614	25.5764	38.1551	
30	0.25	-100.509	5.38823	43.2658	-76.9419	-8.8366	16.638	-71.3446	-16.0085	-6.62158	-61.1151	-22.6048	-29.7665	-99.2687	24.8328	-38.0839	-94.797	12.9486	-58.3486	-83.984	-5.73424	-83.1191	-133.831	19.638	-44.1794	-126.712	16.7395	-73.9915	-121.275	11.1496	-100.714	-152.555	8.08208	-44.132	-151.503	6.87943	-71.3656	-144.311	7.70605	-94.7704	-170.039	-19.0144	-28.1034	-174.394	-23.6705	-45.0777	-182.614	-21.1358	-72.1034	-164.511	7.92796	14.4925	-167.754	3.34004	49.8675	-137.614	25.2165	36.201	
31	0.258333	-99.2141	5.14928	46.4972	-75.2478	-9.97803	18.6018	-70.8119	-14.8893	-5.69392	-57.2878	-22.0017	-27.0552	-102.112	23.2962	-37.9636	-91.1301	13.9129	-57.9875	-81.4424	-3.72035	-79.9627	-130.971	20.9775	-47.5748	-123.857	17.0707	-74.0113	-117.681	13.6939	-102.584	-153.987	4.98262	-41.1919	-149.772	6.75069	-66.4335	-145.691	6.09757	-93.8404	-171	-20.5202	-23.933	-176.579	-25.0119	-46.2611	-180.978	-22.0303	-66.4099	-163.068	7.91969	16.5939	-165.343	3.32774	51.611	-132.773	25.7777	36.4772	
32	0.266667	-98.3979	4.67379	46.2144	-76.9308	-9.97941	20.9981	-66.8572	-15.5506	-5.49412	-60.7187	-22.2347	-26.7722	-100.671	25.5052	-31.8349	-91.7396	13.0314	-58.3771	-83.8948	-3.61257	-80.1492	-133.034	19.1618	-43.4846	-126.469	17.0786	-71.6325	-118.315	11.8784	-100.315	-151.901	7.27848	-40.0627	-151.365	6.28267	-65.6775	-146.788	4.0002	-91.3825	-171.766	-21.7512	-24.9874	-173.09	-22.7946	-46.136	-180.69	-22.4411	-70.0157	-163.325	7.33177	16.163	-165.041	3.06824	52.1498	-137.316	21.2425	37.3415	
33	0.275	-95.582	5.96826	48.4665	-74.9433	-9.14538	20.745	-66.1342	-14.5887	-8.42865	-58.8523	-22.1368	-24.1119	-104.009	23.6103	-33.3766	-94.8335	14.8751	-59.1189	-85.0782	0.196582	-81.6116	-131.01	20.118	-45.5638	-126.612	16.9316	-71.0385	-120.372	12.1303	-98.0484	-151.346	7.0941	-41.9754	-150.928	5.87157	-66.061	-147.415	3.58011	-93.8264	-172.978	-21.586	-28.2731	-173.328	-23.9235	-46.4977	-183.829	-23.3965	-66.1601	-160.18	9.47393	16.8937	-165.496	5.56419	48.4025	-137.002	24.2765	36.5957	
34	0.283333	-97.9179	5.49987	48.5084	-74.1476	-10.0563	23.6378	-66.2108	-14.6097	-2.25555	-57.3446	-20.6994	-23.3976	-103.905	26.1544	-31.7638	-95.6925	17.0392	-62.2705	-90.9818	7.14866	-81.8032	-131.699	20.6699	-46.5453	-127.606	15.9977	-73.692	-121.362	11.2859	-103.04	-154.882	5.81707	-40.5823	-149.876	7.66627	-68.5051	-148.423	3.21799	-94.5798	-172.155	-21.2852	-22.5523	-175.557	-24.3352	-46.9558	-181.896	-22.4214	-68.9913	-160.555	9.05082	17.3772	-166.88	4.04628	52.492	-137.962	23.1919	36.3933	
35	0.291667	-96.9971	5.33022	50.2538	-75.8268	-7.71361	21.6537	-66.9769	-12.8624	-0.806693	-55.0906	-19.7583	-20.9686	-105.485	28.718	-33.1078	-95.9672	23.0929	-62.1752	-93.9789	13.324	-82.8654	-136.59	17.9819	-47.3382	-127.691	15.8726	-73.5725	-122.554	11.7488	-101.59	-156.442	4.35487	-41.024	-152.581	5.8559	-69.7078	-148.929	2.37477	-92.0181	-174.457	-21.5378	-27.8028	-177.001	-25.3285	-47.602	-183.939	-26.1461	-65.9741	-164.201	8.25015	15.0853	-169.648	4.48552	50.3688	-137.712	21.4197	37.9584	
36	0.3	-97.5796	6.79277	49.9512	-77.3145	-7.12199	23.3072	-65.4307	-12.18	1.89442	-46.5288	-17.6086	-15.9173	-111.47	26.4007	-34.1131	-106.092	24.0626	-58.6504	-102.336	16.0512	-84.8838	-137.197	18.0587	-44.3418	-129.848	15.9843	-70.5037	-128.848	7.5871	-99.8172	-157.502	3.04493	-38.6227	-154.435	3.52958	-65.024	-150.113	1.78632	-95.3469	-173.143	-21.8439	-27.5844	-175.992	-25.7581	-46.1316	-186.059	-28.0274	-68.4115	-166.558	4.4095	18.1337	-169.861	4.64676	49.5825	-139.021	21.1823	37.218	
37	0.308333	-99.9446	7.61403	47.9895	-76.8532	-5.18054	23.8883	-63.566	-10.8203	5.41458	-44.4573	-15.5413	-10.7428	-113.251	27.3527	-37.2404	-108.296	26.4394	-61.6747	-103.192	21.2645	-86.3793	-140.447	15.6843	-42.528	-134.308	13.1578	-71.6896	-131.801	5.40033	-99.8803	-160.05	1.12029	-38.6466	-154.719	3.36882	-68.8463	-156.289	-1.55074	-95.7963	-175.988	-23.3144	-20.696	-179.9	-29.1458	-42.2583	-184.623	-25.8348	-64.2662	-163.376	5.95194	20.969	-173.362	2.50643	50.9342	-136.975	24.2332	36.2565	
38	0.316667	-102.641	8.05637	48.6907	-74.6953	-5.45821	28.8967	-59.6504	-9.42933	7.02188	-47.2157	-17.0145	-7.56477	-114.396	27.9975	-31.8119	-107.464	28.8715	-60.3109	-109.585	23.352	-86.0979	-137.68	18.3046	-42.3714	-135.417	12.8956	-72.3946	-133.333	5.26721	-103.445	-157.808	2.74301	-39.9212	-157.373	1.9925	-66.9626	-156.211	-2.241	-91.7728	-175.354	-23.6915	-23.8563	-181.941	-30.2083	-41.3308	-190.902	-30.2516	-67.1532	-166.448	2.93369	19.8168	-169.233	4.78142	51.2583	-138.214	24.9881	37.6241	
39	0.325	-104.17	7.92362	48.7737	-80.5405	-6.45153	30.1123	-60.0433	-9.65523	6.21523	-42.5206	-15.4277	-10.7018	-115.791	28.1239	-36.4663	-112.297	29.1127	-57.2513	-111.282	26.6999	-86.8083	-142.473	15.3555	-46.3428	-136.497	11.6575	-74.3896	-134.897	4.64158	-99.4742	-158.188	2.34783	-39.211	-158.599	-0.068424	-68.1533	-159.123	-3.9826	-94.5861	-177.515	-25.0522	-25.4989	-182.33	-30.3178	-43.4705	-189.647	-31.3486	-67.5865	-165.936	6.28849	19.6084	-172.353	2.2191	50.7238	-138.462	23.5308	39.5511	
40	0.333333	-98.8963	9.77839	48.4156	-78.3439	-4.83476	27.6828	-59.7589	-8.01685	7.45295	-41.8528	-14.1585	-7.13291	-118.358	28.9561	-36.5074	-113.012	29.6259	-59.5165	-115.736	26.8856	-84.6592	-142.211	15.6142	-45.5045	-137.065	12.3358	-72.4408	-129.673	6.54223	-101.528	-161.336	0.286291	-40.013	-159.441	0.646083	-66.8375	-156.254	-2.83813	-94.8531	-176.079	-22.6546	-22.8335	-182.812	-30.7472	-41.5505	-189.348	-27.5025	-65.4801	-169.531	3.92585	15.8038	-172.462	2.8856	51.2745	-142.411	23.4438	38.1928	
41	0.341667	-99.6253	11.0847	49.0626	-80.3073	-6.12084	30.4752	-58.2921	-8.73851	5.59991	-45.0133	-14.5051	-10.2197	-117.05	30.139	-32.7811	-114.847	30.9253	-56.7011	-117.229	27.1568	-83.259	-142.048	15.5849	-46.7328	-135.576	12.4472	-73.3023	-133.061	2.79551	-101.801	-162.434	0.11161	-39.5116	-157.156	1.12512	-66.6157	-154.179	-2.40494	-92.5796	-179.185	-25.523	-23.6114	-182.502	-30.0793	-43.2488	-192.154	-30.4956	-67.4139	-167.616	4.77382	17.6797	-169.821	3.87571	51.2803	-140.177	23.8422	39.8644	
42	0.35	-101.511	9.54627	45.8281	-76.4996	-4.13225	28.8708	-64.2102	-9.90889	2.07507	-49.1299	-16.1655	-11.1333	-116.544	33.4581	-31.5926	-115.341	32.8177	-60.5474	-116.253	31.1251	-87.9354	-140.258	15.9317	-47.8338	-135.628	11.0217	-74.1486	-126.633	4.04531	-104.161	-161.231	0.143575	-39.4828	-160.44	-2.00262	-69.1339	-154.761	-3.34265	-92.8954	-178.508	-24.9133	-23.3968	-182.086	-28.5612	-43.7038	-189.597	-27.533	-66.1256	-167.379	5.3998	20.4726	-171.142	2.56932	52.54	-141.298	23.2979	39.7491	
